<svg xmlns="http://www.w3.org/2000/svg" version="1.1" xmlns:xlink="http://www.w3.org/1999/xlink" width="512" height="512" x="0" y="0" viewBox="0 0 512 512" style="enable-background:new 0 0 512 512" xml:space="preserve"><circle r="256" cx="256" cy="256" fill="#FFFFFF" shape="circle"></circle><g transform="matrix(0.7,0,0,0.7,76.79998626708985,76.80015106201174)"><path d="M496.207 190.497c-43.041-8.697-86.646-3.818-129.597 14.509a7.5 7.5 0 0 0-4.144 9.353l4.706 13.589c-19.33.006-35.387-5.057-52.237-10.391-5.125-1.623-10.425-3.3-15.872-4.852-25.342-7.214-50.882-1-70.076 17.048l-2.365 2.223c-32.783 7.398-55.416 6.927-82.476-2.062l5.387-15.555a7.5 7.5 0 0 0-4.144-9.353c-42.951-18.326-86.555-23.208-129.597-14.509a7.5 7.5 0 0 0-6.015 7.352v186.078c0 4.143 3.357 7.5 7.5 7.5h65.596a7.5 7.5 0 0 0 7.087-5.046l2.949-8.516c25.018 9.411 44.305 29.478 55.066 40.682a519.685 519.685 0 0 0 3.004 3.112l77.256 79.163c4.791 4.908 11.251 7.635 18.189 7.677l.165.001c6.978 0 13.518-2.699 18.432-7.613a25.808 25.808 0 0 0 6.436-10.672c11.477 6.413 26.283 4.749 36.027-4.993a30 30 0 0 0 8.645-18.125 30.445 30.445 0 0 0 8.285 1.139c8.067 0 15.636-3.125 21.31-8.8 5.442-5.442 8.363-12.467 8.764-19.606 9.615 1.992 20.025-.733 27.475-8.18 10.995-10.995 11.686-28.173 2.048-40.284a41.95 41.95 0 0 0 7.725-2.321c7.71-3.146 14.825-6.722 21.707-10.179 1.736-.872 3.428-1.72 5.11-2.554l3.487 10.069a7.5 7.5 0 0 0 7.087 5.046h65.596c4.143 0 7.5-3.357 7.5-7.5V197.849a7.502 7.502 0 0 0-6.016-7.352zM77.534 376.427H24.778V204.081c35.911-6.112 72.269-2.056 108.259 12.073zm293.822 44.615c-5.904 5.901-15.507 5.901-21.407 0l-47.194-48.255a7.498 7.498 0 0 0-10.605-.129 7.499 7.499 0 0 0-.129 10.605l43.033 44.096.027.025.037.041c5.901 5.9 5.901 15.503 0 21.404-5.902 5.902-15.507 5.901-21.405.003l-49.198-50.26a7.498 7.498 0 0 0-10.605-.129 7.499 7.499 0 0 0-.129 10.605l43.034 44.096.032.029.032.035v.001c2.842 2.841 4.406 6.642 4.406 10.703s-1.564 7.861-4.404 10.701c-5.904 5.901-15.507 5.9-21.407.002l-53.419-54.48a7.498 7.498 0 0 0-10.605-.129 7.499 7.499 0 0 0-.129 10.605l43.033 44.095.032.03.032.035c4.274 4.276 4.275 11.233.001 15.509-2.095 2.095-4.887 3.225-7.898 3.22-2.898-.018-5.579-1.139-7.547-3.154l-77.256-79.163c-.895-.917-1.869-1.932-2.92-3.026-11.677-12.158-32.618-33.945-60.974-44.472l41.416-119.594c16.163 5.379 31.092 8.017 47.052 8.017 6.553 0 13.293-.462 20.35-1.344l-17.356 16.319c-8.302 7.807-12.69 17.957-12.69 29.354v75.36c0 4.143 3.357 7.5 7.5 7.5 32.323 0 65.757-20.444 65.757-54.658 0-11.81 9.309-20.251 16.445-26.085l81.732 81.682c3.943 3.941 8.466 6.932 13.313 8.93l9.899 10.348c5.93 6.205 5.982 15.661.114 21.528zm35.352-55.58c-6.624 3.327-13.473 6.769-20.641 9.693-9.741 3.977-19.995 1.909-27.437-5.527l-86.547-86.493a7.5 7.5 0 0 0-10.292-.294c-.796.709-1.886 1.589-3.148 2.607-8.315 6.713-23.794 19.207-23.794 39.192 0 14.102-8.29 23.249-15.244 28.439-7.71 5.755-17.629 9.528-28.013 10.77v-67.411c0-7.359 2.605-13.387 7.966-18.427l39.704-37.331c15.254-14.344 35.554-19.283 55.693-13.549 5.237 1.49 10.43 3.135 15.452 4.725 18.641 5.9 37.88 11.974 61.922 10.984l41.275 119.185a822.105 822.105 0 0 0-6.896 3.437zm80.514 10.965h-52.756l-55.503-160.272c35.989-14.13 72.345-18.185 108.259-12.073zM81.527 177.596h101.534v21.225c0 4.143 3.357 7.5 7.5 7.5h130.877c4.143 0 7.5-3.357 7.5-7.5v-21.225h101.534c4.143 0 7.5-3.357 7.5-7.5v-31.359a63.048 63.048 0 0 0-37.958-57.923c7.411-8.213 11.928-19.036 11.928-30.888 0-25.599-21.043-46.425-46.908-46.425-25.866 0-46.909 20.826-46.909 46.425 0 11.862 4.524 22.694 11.947 30.91a63.537 63.537 0 0 0-32.421 32.068 62.792 62.792 0 0 0-6.671-3.365c7.411-8.213 11.928-19.036 11.928-30.887 0-25.6-21.043-46.426-46.908-46.426-25.866 0-46.909 20.826-46.909 46.426 0 11.852 4.517 22.675 11.928 30.888-2.3.998-4.53 2.116-6.67 3.365a63.53 63.53 0 0 0-32.42-32.068c7.423-8.215 11.947-19.047 11.947-30.909 0-25.599-21.043-46.425-46.908-46.425-25.866 0-46.909 20.826-46.909 46.425 0 11.852 4.517 22.676 11.928 30.888a63.048 63.048 0 0 0-37.958 57.923v31.359a7.497 7.497 0 0 0 7.498 7.498zm232.411 13.724H198.062v-23.858c0-22.668 15.665-42.058 37.581-46.991a47.034 47.034 0 0 0 20.358 4.604 47.03 47.03 0 0 0 20.357-4.604c21.916 4.933 37.581 24.323 37.581 46.991v23.858zM365.034 18.5c17.594 0 31.908 14.097 31.908 31.425s-14.314 31.426-31.908 31.426c-17.595 0-31.909-14.098-31.909-31.426S347.439 18.5 365.034 18.5zm-20.352 73.249a47.023 47.023 0 0 0 20.352 4.602c7.29 0 14.197-1.656 20.358-4.605 21.916 4.935 37.581 24.324 37.581 46.991v23.859h-94.232a62.99 62.99 0 0 0-18.744-40.266c5.596-15.357 18.686-26.96 34.685-30.581zM256 47.225c17.594 0 31.908 14.098 31.908 31.426S273.594 110.075 256 110.075c-17.595 0-31.909-14.097-31.909-31.425S238.405 47.225 256 47.225zM146.967 18.5c17.594 0 31.908 14.097 31.908 31.425s-14.314 31.426-31.908 31.426c-17.595 0-31.909-14.098-31.909-31.426S129.372 18.5 146.967 18.5zm-57.94 120.236c0-22.667 15.665-42.056 37.581-46.991a47.039 47.039 0 0 0 20.359 4.605 47.027 47.027 0 0 0 20.352-4.602c15.998 3.621 29.089 15.223 34.685 30.581a62.986 62.986 0 0 0-18.744 40.266H89.027z" fill="#000000" opacity="1" data-original="#000000"></path></g></svg>