<svg xmlns="http://www.w3.org/2000/svg" version="1.1" xmlns:xlink="http://www.w3.org/1999/xlink" width="512" height="512" x="0" y="0" viewBox="0 0 64 64" style="enable-background:new 0 0 512 512" xml:space="preserve"><circle r="32" cx="32" cy="32" fill="#FFFFFF" shape="circle"></circle><g transform="matrix(0.7,0,0,0.7,9.568694972991945,9.601508188247681)"><path fill="#010101" d="M43 43.7c.3 0 .8 2.3.7 5.2 0 .5 0 3.1-.4 6.8-.1.9-.2 1.9-.4 3s-.5 2.4-1.7 3.3c-.5.4-1.3.7-2.1.6s-1.5-.7-1.8-1.3c-.4-.6-.5-1.4-.6-2.1V34.9c0-2.8.3-5.2.6-5.2s.6 2.3.6 5.2c0 1.1-.1 10-.2 20.7v2.1c0 .7 0 1.4.1 2 .1 1.2 1 2.2 2 1.9.5-.1.9-.4 1.2-.8s.5-.9.7-1.4c.3-1 .3-2.2.5-3.1.4-4 .4-6.8.4-7.3 0-3 .1-5.3.4-5.3z" opacity="1" data-original="#010101"></path><path fill="#010101" d="M48.7 32.8c.3 0 .6 1.7.6 3.8 0 .8-.1 7.4-.1 15.3v6c0 1-.1 2-.6 2.9-.4.9-1.4 1.6-2.3 1.6-.9.1-1.7-.3-2.3-.7s-1-.9-1.3-1.4c-.5-1-.6-1.6-.6-1.9-.2-1.2 0-2.2.2-2.8.2-.7.4-1.1.6-1 .2 0 .2.5.3 1.2 0 .7 0 1.6.1 2.6 0 .2.1.7.4 1.3s1.1 1.5 2.2 1.6c.5.1 1.1-.1 1.5-.6s.7-1.2.7-2c.1-.8.1-1.7.1-2.7v-2.9c0-8.3-.1-15.8-.1-16.5 0-2.1.3-3.8.6-3.8zM40.6 13.4c0 .2-.2.3-.3.7-.1.3-.2.7 0 1.3 0 .1.1.5.2 1s.3 1.3.6 2.1.9 1.6 1.7 2.2c.8.5 2.1.6 2.9-.2s.7-2.2.6-3.4-.5-2.2-1.1-2.9c-.6-.6-1.3-.9-1.8-1s-.9 0-1 0c-1.2.1-2.1.8-2.3.6-.1-.1 0-.4.3-.8.4-.4 1-.8 1.8-.9.1 0 .6-.1 1.3 0 .6.1 1.5.4 2.3 1.2.8.7 1.3 1.9 1.4 3.1.1.6.1 1.2.1 1.9s-.1 1.4-.4 2.1c-.3.8-1.1 1.4-1.8 1.6-.8.2-1.6.2-2.3-.1-1.4-.5-2.2-1.7-2.7-2.6-.5-1-.7-1.8-.9-2.4s-.3-1-.3-1.2c-.1-.4-.1-.8 0-1.2s.3-.7.5-.9c.8-.5 1.2-.4 1.2-.2zM50.6 16.5c.3.1.2 1.1.4 2.1 0 .1.1.4.2.8.2.4.4.9 1 1.4.5.4 1.3.7 2.2.7.9-.1 1.8-.6 2.3-1.5s.5-2.2.3-3.1-1-1.4-1.7-1.5c-.8-.1-1.5 0-2 .1s-.8.2-.9.2c-1 .3-1.2 1-1.5 1.1-.2 0-.4-.3-.3-.8s.7-1.2 1.4-1.4c.1 0 .5-.2 1-.2.5-.1 1.3-.2 2.2-.1.5.1 1 .2 1.5.5s.9.8 1.2 1.3c.3.6.4 1.2.4 1.8s0 1.2-.2 1.9-.5 1.3-1.1 1.8c-.5.5-1.1.8-1.8.9-1.2.3-2.5 0-3.4-.5-.9-.6-1.3-1.3-1.6-1.9s-.3-1-.3-1.1c-.1-.7 0-1.4.2-1.8.1-.5.4-.7.5-.7zM20.6 44.5c.3 0 .5 2.1.3 4.6 0 .5-.2 2.7-.5 6-.1.8-.1 1.7-.2 2.7-.1.9 0 2-.6 3.1-.3.5-.7 1.1-1.4 1.3-.6.3-1.5.2-2.1-.1-.6-.4-1-.9-1.3-1.6-.3-.6-.3-1.3-.4-1.9-.1-10-.1-19-.1-19.9 0-2.5.3-4.6.6-4.6s.6 2.1.6 4.6c0 .9 0 8.9-.1 18.5 0 1.3 0 2.5.5 3.3.3.4.7.8 1.1.9s.8 0 1.1-.3c.7-.6.9-1.6.9-2.6.1-1 .1-2 .2-2.9.2-3.6.4-6.1.4-6.5.2-2.6.6-4.6 1-4.6z" opacity="1" data-original="#010101"></path><path fill="#010101" d="M25.7 29.7c.3 0 .4 2.3.3 5-.1 1-.7 9.6-.4 19.9 0 1.4.1 2.7.1 4 0 .7 0 1.4-.3 2.1-.2.7-.8 1.3-1.4 1.7-.3.2-.7.3-1.1.3s-.8-.1-1.1-.3c-.7-.4-1-1.1-1.1-1.7-.2-.6-.2-1.2-.2-1.7v-1.5c-.1-3.9-.2-6.6-.2-7.1-.1-2.7.1-5 .5-5 .3 0 .7 2.2.7 4.9 0 .5.1 2.9.1 6.5 0 .9 0 1.9.1 2.8s.4 1.9 1.2 2c.4.1.8-.1 1.2-.4s.6-.7.7-1.3c.2-1 0-2.4 0-3.6-.4-10.8.1-20.5.1-21.5.1-2.9.5-5.1.8-5.1z" opacity="1" data-original="#010101"></path><path fill="#010101" d="M14.6 44.6c.1 0 .2.2.3.6s.2 1 0 1.8c-.1.4-.3.8-.6 1.2s-.8.7-1.5.8c-1.4.1-2.5-1.1-2.7-2.3-.1-.2-.1-.7-.2-1.3v-2.2c0-1.8.2-4.2.5-7.1.2-1.4.3-3 .5-4.6.1-.8.2-1.6.3-2.5s.3-1.8.8-2.7c.4-.9 1.2-1.7 2.2-2.2.9-.5 2-.7 3-.8 2-.2 4.1 0 5.9-.6.9-.3 1.7-1 2.2-1.8s.9-1.8 1.2-2.8c.7-2 1.4-3.9 2.1-5.7.3-.9.6-1.9 1.3-2.8.3-.4.8-.8 1.3-1s1.2-.2 1.7 0c.6.2 1 .7 1.2 1.1.3.4.4.9.5 1.4.2.9.1 1.8.1 2.6-.2 3.2-.9 5.8-1.6 7.7s-1.3 3-1.5 3.4c-1.1 2-2.3 3.6-3.5 4.6s-2.2 1-2.3.9c-.1-.2.8-.5 1.7-1.5 1-1 2-2.6 3-4.5.2-.4.7-1.4 1.4-3 .6-1.6 1.3-3.9 1.6-6.7.1-1.4.3-3-.3-4.2-.3-.6-.9-.9-1.5-.7s-1.2.8-1.5 1.5c-.7 1.6-1.3 3.5-2 5.3-.3.9-.7 1.9-1 2.8-.4 1-.8 2-1.5 2.9-.7 1-1.9 1.6-3 1.9s-2.2.3-3.3.4c-1.1 0-2.1 0-3 .2s-1.8.5-2.5 1c-1.4 1.1-1.6 3-1.8 4.8s-.4 3.4-.6 5c-.3 3-.5 5.6-.5 7.5v2.4c0 .6.1.9.1 1.1.2.9.9 1.5 1.5 1.5s1.2-.6 1.4-1.2.3-1.2.4-1.6c0-.3.1-.6.2-.6z" opacity="1" data-original="#010101"></path><path fill="#010101" d="M17.3 12.6c.2.2-.3 1.2-.7 2.4 0 .2-.5 1.4.1 2.9.3.7 1 1.5 1.9 1.9s2.2.3 3.1-.5c1-.7 1.2-2 1-3.2-.1-.6-.3-1.2-.4-1.7-.2-.6-.3-1-.6-1.2-.5-.5-1.3-.4-1.9-.3s-1 .2-1.1.2c-1.3.3-2.4.7-2.5.4-.2-.3.7-1.2 2.2-1.6.1 0 .5-.1 1.1-.2.3 0 .7-.1 1.1-.1s1 .1 1.5.4c.5.4.8 1 1 1.5s.3 1.1.5 1.7c.1.6.2 1.3.2 2-.1.7-.3 1.5-.8 2.1-1 1.3-2.7 1.8-4.1 1.5s-2.5-1.3-3-2.3c-.6-1-.7-2-.7-2.7s.2-1.2.2-1.3c.5-1.4 1.7-2.1 1.9-1.9zM32.7 0c.3.1.5.4.4.7 0 .1-.4.9-.5 2-.2 1.1-.1 2.1-.1 2.2 0 .3-.3.5-.6.5s-.6-.2-.6-.5c0-.1.1-1.1.3-2.2.2-1.2.4-2.2.4-2.3 0-.3.3-.5.7-.4zM40.3 4c.3.2.4.5.2.7 0 .1-.5.5-1 1.2s-.9 1.3-1 1.4c-.1.2-.5.2-.7-.1-.3-.2-.4-.5-.2-.7 0-.1.5-.5 1-1.2s.9-1.3 1-1.4c.1-.2.4-.1.7.1zM26.5 7.3c-.2.2-.6.3-.8.1-.1-.1-.6-.7-1.3-1.4-.8-.7-1.5-1.2-1.6-1.3-.2-.2-.2-.5.1-.8.2-.2.6-.3.8-.1.1.1.6.7 1.3 1.4.8.7 1.5 1.2 1.6 1.3.1.2.1.5-.1.8zM7 15.6c.3.1.2 1.2-.1 2.3 0 .2-.4 1.3.3 2.5.3.6 1 1 2 1 .9 0 2.1-.3 2.8-1s.8-2 .8-3c0-1.1-.5-1.7-1.2-2.1-1.4-.6-2.6 0-2.8 0-1.1.4-2.1.7-2.3.4-.1-.3.6-1.1 1.9-1.6.1 0 .5-.2 1-.3.6-.1 1.4-.1 2.3.2.4.2.9.5 1.3.9.4.5.6 1.1.7 1.7s0 1.2 0 1.8c-.1.6-.2 1.3-.5 1.9-.4.7-1 1.1-1.6 1.4s-1.2.4-1.9.5c-.6.1-1.3.1-1.9-.1s-1.1-.6-1.5-1c-.7-.9-.8-1.8-.9-2.4 0-.6.1-1 .1-1.2.5-1.1 1.2-2 1.5-1.9zM4.3 36.2c.3 0 .7 2 .8 4.5 0 .5.1 2.6.2 5.9 0 .4-.1.9-.2 1.4s-.4 1-.8 1.4-1 .7-1.6.7c-.7 0-1.3-.4-1.7-.9-.7-1.1-.8-2.3-.7-3.4V35.3c0-2.2.1-4.5 1.2-6.1s2.6-2.4 3.6-2.9c1.1-.4 1.9-.5 2.1-.6 2.6-.4 4.6.3 4.6.6 0 .4-2.1.3-4.4.6-.2 0-.8.1-1.7.4s-2.1.9-3 2c-1 1.1-1.3 2.9-1.3 4.9 0 2.1 0 4.3-.1 6.6v3.6c0 1.2-.1 2.3.2 3.3.2 1 1 1.4 1.6 1.1.7-.3 1.1-1.1 1.1-1.8.1-.8 0-1.6 0-2.3s-.1-1.4-.1-1.9C4 41.7 4 41 4 40.7c-.2-2.5 0-4.5.3-4.5z" opacity="1" data-original="#010101"></path><path fill="#010101" d="M9.2 48.4c.3 0 .5 1.4.3 3.1 0 .3-.2 1.8-.4 3.9-.1 1.1-.2 2.4-.4 3.7-.1.7-.1 1.4-.3 2.2S7.9 63 7 63.6c-.4.4-1 .5-1.5.4s-.9-.4-1.3-.7-.6-.7-.8-1.1-.3-.8-.3-1.2c-.1-.9-.1-1.6-.1-2.3s.1-1.3.1-1.9c.1-2.4.2-4 .2-4.3.1-1.7.4-3 .8-3 .3 0 .5 1.4.4 3.1 0 .3-.1 1.8-.3 4-.1 1.1-.2 2.4-.2 3.7 0 .6.1 1.3.4 1.8s.9 1 1.4 1c.6 0 1.1-.4 1.3-1.1.3-.7.3-1.4.4-2.1.1-1.5.2-2.9.4-4.1.2-2.4.3-4 .4-4.3.2-1.8.6-3.1.9-3.1z" opacity="1" data-original="#010101"></path><path fill="#010101" d="M14.7 58.8c.1-.1.4 0 .6.3s.3.8.2 1.3c0 .1-.1.4-.2.8-.2.4-.5.9-1 1.4-.6.4-1.4.7-2.2.7-.9 0-1.9-.5-2.5-1.2-1.3-1.7-1.2-3.7-1.1-4.9.1-1.3.1-2.1.1-2.3 0-.8.1-1.5.4-1.6s.8.7.8 1.7c0 .2-.1 1-.2 2.2-.1.6-.1 1.2-.1 1.9s.2 1.4.6 2.1 1 1.1 1.7 1.2 1.3-.1 1.7-.4c.8-.6.9-1.5.9-1.6.1-.7 0-1.4.3-1.6zM48.8 44.9c.2 0 .3.6.7 1.3.2.4.5.7.9 1 .4.2.9.3 1.3.1.1-.1.7-.3 1-1.3.3-.9.1-2.5.1-4.3-.1-1.8-.2-3.9-.3-6.3 0-1.2-.1-2.4-.2-3.6s-.1-2.5-.5-3.6c-.4-1.2-1.4-2.1-2.5-2.6-1.1-.6-2.3-.9-3.5-1.1-2.4-.3-4.8-.4-6.8-1.2s-3.3-2.1-4.1-3.2-1-1.9-1.1-2.2c-.5-1.4-.5-2.8-.4-3.8.2-1 .5-1.5.7-1.4.2 0 .1.6.2 1.5 0 .9.2 2.1.6 3.3.1.2.3.9.9 1.8s1.5 2 3.1 2.8c1.5.8 3.6 1 5.9 1.3 1.2.1 2.4.3 3.6.8 1.2.4 2.5 1.1 3.4 2.2 1 1.2 1.3 2.7 1.4 4.1s.1 2.6.2 3.9c.1 2.5.2 4.8.3 6.8.1 1 .1 1.9.1 2.7s.1 1.6-.1 2.3c-.3 1.5-1.3 2.1-1.6 2.2-.9.4-1.9.1-2.4-.3-.6-.5-.9-1.1-1-1.6-.2-1 0-1.6.1-1.6zM37 37.8c-.3 0-.6-.7-.7-1.5 0-.3-.2-3-1.3-6.1-1.2-3.2-2.7-6-2.8-6.3-.4-.8-.5-1.6-.2-1.7s.9.4 1.2 1.2c.1.3 1.3 2.8 2.5 6 1.3 3.3 1.7 6.5 1.7 6.8.2.8-.1 1.6-.4 1.6zM54.1 50.5c.3 0 .6 1.7.5 3.8 0 .4-.1 2.2-.1 4.9 0 .7.1 1.2.5 1.5s1.2.3 1.8 0 1-1 1.3-1.8c.2-.8.2-1.8.2-2.8.1-8.3.1-15.7.1-16.4 0-2.1.3-3.8.7-3.8.3 0 .6 1.7.5 3.8 0 .8-.2 7.3-.3 15.2 0 1 0 2-.1 3.1-.1 1-.4 2.1-1.1 3-.8.8-1.9 1.2-3 1-.5-.1-1-.4-1.3-.9s-.4-1-.4-1.4v-5.5c0-2 .3-3.7.7-3.7z" opacity="1" data-original="#010101"></path><path fill="#010101" d="M53.3 57.3c.3-.1.8.5.7 1.3 0 .1 0 .9-.5 1.8s-1.9 2-3.5 1.6c-.9-.2-1.5-.9-1.7-1.6-.3-.7-.3-1.3-.4-1.8-.1-1-.1-1.7-.1-1.8 0-.7.2-1.3.6-1.3.3 0 .6.5.6 1.2v1.6c0 .8.1 2.1 1 2.5.4.2 1 .2 1.5 0s.8-.5 1-.9c.4-.7.3-1.4.3-1.5.1-.5.2-1 .5-1.1zM59.2 47.9c.1.1 0 .5.3.9.1.2.4.5.6.6.3.1.6.2.9.1.1 0 .5-.2 1-.7s.7-1.5.7-2.8c-.1-2.7-.3-6.3-.6-10.2-.2-2-.5-4-.8-5.8-.2-.9-.3-1.7-.7-2.4-.3-.7-.8-1.2-1.4-1.5-1.1-.6-2.4-.5-3.3-.4s-1.5.2-1.7.3c-1 .2-2.1.2-2.8 0s-1.1-.5-1.1-.6c.1-.2.5-.2 1.1-.2s1.5-.2 2.5-.3c.2 0 .7-.1 1.6-.2s2.1-.2 3.6.3c.7.3 1.5.8 1.9 1.6.5.7.8 1.6.9 2.5.3 1.7.6 3.6.8 5.6.4 4.1.6 8 .8 11 .1 1.5-.1 3-.8 3.9-.6.9-1.4 1.2-1.7 1.3-.6.2-1.4.1-1.9-.3s-.7-.8-.8-1.3c-.1-.4 0-.8.2-1 .5-.4.6-.4.7-.4zM40.6 13.4c0 .2-.2.3-.3.7-.1.3-.2.7 0 1.3 0 .1.1.5.2 1s.3 1.3.6 2.1.9 1.6 1.7 2.2c.8.5 2.1.6 2.9-.2s.7-2.2.6-3.4-.5-2.2-1.1-2.9c-.6-.6-1.3-.9-1.8-1s-.9 0-1 0c-1.2.1-2.1.8-2.3.6-.1-.1 0-.4.3-.8.4-.4 1-.8 1.8-.9.1 0 .6-.1 1.3 0 .6.1 1.5.4 2.3 1.2.8.7 1.3 1.9 1.4 3.1.1.6.1 1.2.1 1.9s-.1 1.4-.4 2.1c-.3.8-1.1 1.4-1.8 1.6-.8.2-1.6.2-2.3-.1-1.4-.5-2.2-1.7-2.7-2.6-.5-1-.7-1.8-.9-2.4s-.3-1-.3-1.2c-.1-.4-.1-.8 0-1.2s.3-.7.5-.9c.8-.5 1.2-.4 1.2-.2z" opacity="1" data-original="#010101"></path></g></svg>