<svg xmlns="http://www.w3.org/2000/svg" version="1.1" xmlns:xlink="http://www.w3.org/1999/xlink" width="512" height="512" x="0" y="0" viewBox="0 0 28 28" style="enable-background:new 0 0 512 512" xml:space="preserve"><circle r="14" cx="14" cy="14" fill="#FFFFFF" shape="circle" transform="matrix(1,0,0,1,0,0)"></circle><g transform="matrix(0.7,0,0,0.7,4.197717189788818,4.200663363933565)"><g data-name="Layer 2"><path d="M18.56 16.94h-3.12l.65-2.16a2.58 2.58 0 0 0-1.66-3.21 1.41 1.41 0 0 0-1.81 1l-.1.42a8.61 8.61 0 0 1-2.26 4l-.57.56a1.56 1.56 0 0 0-1.21-.59h-.73a1.56 1.56 0 0 0-1.56 1.54v6.44a1.56 1.56 0 0 0 1.56 1.56h.73a1.55 1.55 0 0 0 1.33-.76l.14.07a6.55 6.55 0 0 0 2.91.69h3.59a3.58 3.58 0 0 0 3-1.6 6.34 6.34 0 0 0 1.07-3.53v-2.49a1.94 1.94 0 0 0-1.96-1.94zm-9.56 8a.56.56 0 0 1-.56.56h-.69a.56.56 0 0 1-.56-.56V18.5a.56.56 0 0 1 .56-.56h.73a.56.56 0 0 1 .52.56zm10.5-3.57a5.38 5.38 0 0 1-.9 3 2.59 2.59 0 0 1-2.15 1.15h-3.59a5.53 5.53 0 0 1-2.46-.58l-.4-.2V18.6l.92-.92a9.63 9.63 0 0 0 2.53-4.46l.1-.41a.43.43 0 0 1 .2-.26.4.4 0 0 1 .32 0 1.58 1.58 0 0 1 1 2l-.84 2.81a.5.5 0 0 0 .08.44.48.48 0 0 0 .4.2h3.79a.94.94 0 0 1 .94.94zM11 7.3l-.32 1.85a1.09 1.09 0 0 0 .44 1.09 1.11 1.11 0 0 0 .65.22 1.18 1.18 0 0 0 .52-.13L14 9.45l1.67.88a1.1 1.1 0 0 0 1.17-.09 1.09 1.09 0 0 0 .44-1.08L17 7.3 18.31 6a1.1 1.1 0 0 0 .29-1.14 1.12 1.12 0 0 0-.9-.76l-1.87-.27L15 2.12a1.12 1.12 0 0 0-2 0l-.83 1.69-1.87.27a1.12 1.12 0 0 0-.9.76A1.1 1.1 0 0 0 9.69 6zm-.6-2.23 2.13-.31a.49.49 0 0 0 .47-.27l1-1.93a.11.11 0 0 1 .2 0l1 1.93a.49.49 0 0 0 .38.27l2.13.31a.12.12 0 0 1 .09.08.11.11 0 0 1 0 .11l-1.54 1.5a.53.53 0 0 0-.15.45l.37 2.11a.09.09 0 0 1-.05.11.1.1 0 0 1-.12 0l-1.9-1a.47.47 0 0 0-.46 0l-1.91 1a.09.09 0 0 1-.11 0 .09.09 0 0 1-.05-.11l.37-2.11a.53.53 0 0 0-.15-.45l-1.54-1.5a.11.11 0 0 1 0-.11.12.12 0 0 1-.12-.08zM7.34 13.25a1 1 0 0 0 1-1.19l-.27-1.52 1.12-1.09a1 1 0 0 0-.56-1.73L7.1 7.5l-.69-1.39a1.05 1.05 0 0 0-1.82 0L3.9 7.5l-1.53.22a1 1 0 0 0-.56 1.73l1.11 1.09-.27 1.52a1 1 0 0 0 .41 1 1 1 0 0 0 1.07.07l1.37-.72 1.37.72a1 1 0 0 0 .47.12zm-1.84-1.9a.46.46 0 0 0-.23.06l-1.63.82.36-1.78a.53.53 0 0 0-.2-.45L2.51 8.71l1.8-.26a.47.47 0 0 0 .37-.27l.83-1.63.81 1.63a.47.47 0 0 0 .37.27l1.8.29L7.2 10a.53.53 0 0 0-.15.45l.29 1.8-1.61-.84a.46.46 0 0 0-.23-.06zM26.45 8.41a1 1 0 0 0-.82-.69L24.1 7.5l-.69-1.39a1.05 1.05 0 0 0-1.82 0L20.9 7.5l-1.53.22a1 1 0 0 0-.56 1.73l1.11 1.09-.27 1.52a1 1 0 0 0 .41 1 1 1 0 0 0 1.07.07l1.37-.72 1.37.72a1 1 0 0 0 .47.12 1 1 0 0 0 1-1.19l-.27-1.52 1.11-1.09a1 1 0 0 0 .27-1.04zM24.2 10a.53.53 0 0 0-.15.45l.29 1.8-1.61-.84a.47.47 0 0 0-.46 0l-1.63.82.36-1.78a.53.53 0 0 0-.2-.45l-1.29-1.29 1.8-.26a.47.47 0 0 0 .37-.27l.83-1.63.81 1.63a.47.47 0 0 0 .37.27l1.8.29z" fill="#000000" opacity="1" data-original="#000000"></path></g></g></svg>